<svg width="11" height="11" viewBox="0 0 11 11" fill="none" xmlns="http://www.w3.org/2000/svg">
<path d="M5.5 5.04163C5.8797 5.04163 6.1875 4.73382 6.1875 4.35413C6.1875 3.97443 5.8797 3.66663 5.5 3.66663C5.1203 3.66663 4.8125 3.97443 4.8125 4.35413C4.8125 4.73382 5.1203 5.04163 5.5 5.04163Z" fill="white"/>
<path d="M5.49967 0.916626C4.53353 0.916578 3.60642 1.29785 2.91983 1.97757C2.23324 2.6573 1.84267 3.58053 1.83301 4.54663C1.83301 7.05829 5.06426 9.85413 5.20176 9.97329C5.28478 10.0443 5.39043 10.0833 5.49967 10.0833C5.60892 10.0833 5.71457 10.0443 5.79759 9.97329C5.95801 9.85413 9.16634 7.05829 9.16634 4.54663C9.15668 3.58053 8.76611 2.6573 8.07952 1.97757C7.39293 1.29785 6.46582 0.916578 5.49967 0.916626ZM5.49967 5.95829C5.1824 5.95829 4.87225 5.86421 4.60845 5.68794C4.34464 5.51167 4.13903 5.26114 4.01762 4.96801C3.8962 4.67489 3.86443 4.35235 3.92633 4.04117C3.98823 3.72999 4.14101 3.44416 4.36536 3.21981C4.5897 2.99546 4.87554 2.84268 5.18672 2.78078C5.49789 2.71889 5.82044 2.75065 6.11356 2.87207C6.40669 2.99348 6.65722 3.1991 6.83349 3.4629C7.00976 3.7267 7.10384 4.03685 7.10384 4.35413C7.10384 4.77958 6.93483 5.1876 6.63399 5.48844C6.33315 5.78928 5.92513 5.95829 5.49967 5.95829Z" fill="white"/>
</svg>
