<svg width="20" height="20" viewBox="0 0 20 20" fill="none" xmlns="http://www.w3.org/2000/svg">
<path d="M17.0004 5.94999V16.301C17.0004 16.823 16.5484 17.072 16.0004 17.461C15.5604 17.774 15.0004 17.386 15.0004 16.874V6.75999C15.0004 6.54899 14.9264 6.34799 14.6864 6.22499C14.4464 6.10199 6.94838 2.15999 6.94838 2.15999C6.82738 2.11499 6.29938 1.78199 5.59538 2.14399C4.92638 2.48799 4.56238 2.86199 4.46938 3.03799L12.6494 7.51999C12.8664 7.63399 13.0004 7.80999 13.0004 8.03599V18.838C12.9979 18.9598 12.9622 19.0787 12.8972 19.1818C12.8322 19.2849 12.7403 19.3683 12.6314 19.423C12.5278 19.4741 12.4138 19.5004 12.2984 19.5C12.1626 19.5016 12.029 19.4656 11.9124 19.396C11.6974 19.265 4.13838 14.63 3.63938 14.329C3.39938 14.185 3.11838 13.89 3.11238 13.671L3.00038 3.38499C3.00038 3.18699 2.97738 2.83799 3.28938 2.35299C3.98638 1.26899 6.41838 0.0359884 7.64938 0.674988L16.6484 5.22999C16.8654 5.34199 17.0004 5.56599 17.0004 5.94999Z" fill="white"/>
</svg>
