<svg width="20" height="20" viewBox="0 0 20 20" fill="none" xmlns="http://www.w3.org/2000/svg">
<g clip-path="url(#clip0_0_37)">
<path d="M19.6251 7.42947L18.4559 6.2613C18.3734 6.17846 18.2754 6.11273 18.1674 6.06788C18.0594 6.02304 17.9437 5.99997 17.8268 6C17.5885 6 17.3646 6.09332 17.1966 6.2613L15.9384 7.5195C15.8555 7.60198 15.7898 7.70002 15.745 7.80798C15.7001 7.91594 15.677 8.0317 15.6771 8.1486C15.6771 8.38685 15.7704 8.61082 15.9384 8.7788L16.8584 9.69884C16.6431 10.1735 16.3436 10.6054 15.9746 10.9735C15.6065 11.3434 15.1747 11.6439 14.6999 11.8606L13.7799 10.9406C13.6974 10.8577 13.5994 10.792 13.4914 10.7472C13.3835 10.7023 13.2677 10.6792 13.1508 10.6793C12.9126 10.6793 12.6886 10.7726 12.5206 10.9406L11.2613 12.1977C11.1784 12.2803 11.1126 12.3785 11.0677 12.4867C11.0229 12.5948 10.9999 12.7108 11 12.8279C11 13.0661 11.0933 13.2901 11.2613 13.4581L12.4284 14.6251C12.6963 14.8941 13.0663 15.0467 13.4461 15.0467C13.5263 15.0467 13.6031 15.0402 13.6789 15.027C15.1589 14.7832 16.6268 13.996 17.8114 12.8125C18.9949 11.6301 19.781 10.1633 20.0281 8.67889C20.1027 8.22545 19.9523 7.75884 19.6251 7.42947Z" fill="white"/>
</g>
<defs>
<clipPath id="clip0_0_37">
<rect width="20" height="20" fill="white"/>
</clipPath>
</defs>
</svg>
