<svg width="15" height="15" viewBox="0 0 15 15" fill="none" xmlns="http://www.w3.org/2000/svg">
<path d="M14.6298 13.9218L9.86633 9.05246C10.6055 8.07559 11.0054 6.88122 11.0054 5.62498C11.0054 4.12123 10.4313 2.71124 9.3931 1.64812C8.35492 0.584997 6.97191 0 5.50269 0C4.03347 0 2.65046 0.586872 1.61229 1.64812C0.57228 2.70936 0 4.12123 0 5.62498C0 7.12684 0.574114 8.54059 1.61229 9.60183C2.65046 10.665 4.03164 11.25 5.50269 11.25C6.73163 11.25 7.8982 10.8412 8.85383 10.0875L13.6173 14.9549C13.6313 14.9692 13.6479 14.9806 13.6661 14.9883C13.6844 14.996 13.704 15 13.7237 15C13.7435 15 13.763 14.996 13.7813 14.9883C13.7995 14.9806 13.8161 14.9692 13.8301 14.9549L14.6298 14.1393C14.6438 14.125 14.6549 14.1081 14.6625 14.0894C14.67 14.0708 14.6739 14.0508 14.6739 14.0306C14.6739 14.0104 14.67 13.9904 14.6625 13.9717C14.6549 13.953 14.6438 13.9361 14.6298 13.9218ZM8.40812 8.59496C7.6304 9.38808 6.59956 9.82496 5.50269 9.82496C4.40582 9.82496 3.37499 9.38808 2.59727 8.59496C1.82139 7.79997 1.39402 6.74622 1.39402 5.62498C1.39402 4.50373 1.82139 3.44811 2.59727 2.65499C3.37499 1.86187 4.40582 1.42499 5.50269 1.42499C6.59956 1.42499 7.63224 1.85999 8.40812 2.65499C9.184 3.44999 9.61137 4.50373 9.61137 5.62498C9.61137 6.74622 9.184 7.80184 8.40812 8.59496Z" fill="#8A8A8A"/>
</svg>
