<svg width="26" height="25" viewBox="0 0 26 25" fill="none" xmlns="http://www.w3.org/2000/svg">
<path d="M14.7675 15.2761L15.7715 14.2721C15.9067 14.1385 16.0778 14.0471 16.264 14.0089C16.4502 13.9707 16.6434 13.9874 16.8203 14.0569L18.044 14.5455C18.2227 14.6181 18.376 14.7419 18.4845 14.9014C18.5929 15.061 18.6518 15.249 18.6535 15.442V17.6831C18.6525 17.8143 18.6249 17.9439 18.5724 18.0642C18.52 18.1845 18.4437 18.293 18.3482 18.383C18.2527 18.473 18.14 18.5428 18.0169 18.5881C17.8937 18.6335 17.7627 18.6534 17.6316 18.6467C9.05712 18.1134 7.32699 10.8522 6.99979 8.07319C6.9846 7.93673 6.99848 7.79859 7.04051 7.66787C7.08254 7.53715 7.15177 7.41681 7.24365 7.31477C7.33553 7.21273 7.44797 7.1313 7.57358 7.07584C7.69919 7.02038 7.83512 6.99214 7.97243 6.99298H10.1373C10.3305 6.99355 10.5191 7.05191 10.6789 7.16054C10.8386 7.26917 10.9622 7.42311 11.0338 7.60256L11.5223 8.82621C11.5942 9.00239 11.6125 9.19583 11.575 9.38236C11.5376 9.5689 11.446 9.74026 11.3117 9.87504L10.3077 10.8791C10.3077 10.8791 10.8859 14.792 14.7675 15.2761Z" fill="#0A831E"/>
<path d="M25.3205 12.5C25.3205 19.219 19.7318 24.6795 12.8205 24.6795C5.90926 24.6795 0.320513 19.219 0.320513 12.5C0.320513 5.78106 5.90926 0.320513 12.8205 0.320513C19.7318 0.320513 25.3205 5.78106 25.3205 12.5Z" stroke="#0A831E" stroke-width="0.639937"/>
</svg>
