<svg width="20" height="20" viewBox="0 0 20 20" fill="none" xmlns="http://www.w3.org/2000/svg">
<path d="M13.6364 0V4.97182L10.9091 6.59091V3.83545L9.54545 4.68727L6.36364 6.59091V3.83545L5 4.68727L0.454545 7.41455L0 7.67V20H20V0H13.6364ZM15.4545 1.81818H18.1818V18.1818H1.81818V8.66455L4.54545 7.04545V9.80091L5.90909 8.94909L9.09091 7.04545V9.80091L10.4545 8.94909L15 6.22182L15.4545 5.96636V1.81818ZM3.63636 10.9091V12.7273H5.45455V10.9091H3.63636ZM7.27273 10.9091V12.7273H9.09091V10.9091H7.27273ZM10.9091 10.9091V12.7273H12.7273V10.9091H10.9091ZM14.5455 10.9091V12.7273H16.3636V10.9091H14.5455ZM3.63636 14.5455V16.3636H5.45455V14.5455H3.63636ZM7.27273 14.5455V16.3636H9.09091V14.5455H7.27273ZM10.9091 14.5455V16.3636H12.7273V14.5455H10.9091ZM14.5455 14.5455V16.3636H16.3636V14.5455H14.5455Z" fill="white"/>
</svg>
