<svg width="118" height="118" viewBox="0 0 118 118" fill="none" xmlns="http://www.w3.org/2000/svg">
<path d="M59 0C26.4183 0 0 26.4183 0 59C0 91.5817 26.4183 118 59 118C91.5817 118 118 91.5817 118 59C118 26.4183 91.5817 0 59 0ZM77.9775 59.9087L49.215 80.8353C49.0573 80.9486 48.8714 81.0162 48.6778 81.0308C48.4841 81.0453 48.2903 81.0062 48.1174 80.9178C47.9446 80.8293 47.7994 80.6949 47.698 80.5293C47.5966 80.3637 47.5427 80.1734 47.5424 79.9792V38.1525C47.5418 37.9579 47.595 37.767 47.6963 37.6008C47.7975 37.4346 47.9428 37.2998 48.116 37.2111C48.2892 37.1225 48.4835 37.0835 48.6775 37.0986C48.8715 37.1136 49.0575 37.1821 49.215 37.2964L77.9775 58.2098C78.1133 58.3059 78.2242 58.4332 78.3007 58.581C78.3772 58.7288 78.4171 58.8928 78.4171 59.0593C78.4171 59.2257 78.3772 59.3897 78.3007 59.5375C78.2242 59.6853 78.1133 59.8126 77.9775 59.9087Z" fill="#222222" fill-opacity="0.5"/>
</svg>
