<svg width="22" height="17" viewBox="0 0 22 17" fill="none" xmlns="http://www.w3.org/2000/svg">
<g clip-path="url(#clip0_1_2378)">
<path d="M14.1345 8.50001C13.5734 8.50001 13.0454 8.20118 12.7599 7.72305L10.6249 4.1836L8.4933 7.72305C8.20443 8.2045 7.6765 8.50333 7.11537 8.50333C6.96596 8.50333 6.81654 8.4834 6.67377 8.44024L2.12494 7.13868V13.0488C2.12494 13.5369 2.45697 13.9619 2.92846 14.0781L10.107 15.8744C10.4456 15.9574 10.8009 15.9574 11.1363 15.8744L18.3214 14.0781C18.7929 13.9586 19.1249 13.5336 19.1249 13.0488V7.13868L14.5761 8.43692C14.4333 8.48008 14.2839 8.50001 14.1345 8.50001ZM21.1935 4.77462L19.4835 1.36133C19.3806 1.15548 19.1581 1.03594 18.929 1.06583L10.6249 2.12501L13.6697 7.1752C13.7958 7.38438 14.0482 7.48399 14.2839 7.41758L20.8548 5.54161C21.1835 5.44532 21.3429 5.08008 21.1935 4.77462ZM1.76635 1.36133L0.0563858 4.77462C-0.0963486 5.08008 0.0663468 5.44532 0.391737 5.53829L6.96264 7.41426C7.19838 7.48067 7.45072 7.38106 7.57689 7.17188L10.6249 2.12501L2.31752 1.06583C2.08842 1.03926 1.86928 1.15548 1.76635 1.36133Z" fill="white"/>
</g>
<defs>
<clipPath id="clip0_1_2378">
<rect width="21.25" height="17" fill="white"/>
</clipPath>
</defs>
</svg>
