<svg width="184" height="25" viewBox="0 0 184 25" fill="none" xmlns="http://www.w3.org/2000/svg">
<g clip-path="url(#clip0_1_1064)">
<path d="M103.5 6.50701C103.364 6.02225 103.1 5.58336 102.734 5.23702C102.358 4.88002 101.898 4.62465 101.396 4.49501C99.5181 4.00001 91.9941 4.00002 91.9941 4.00002C88.8575 3.96433 85.7216 4.12129 82.6041 4.47001C82.1023 4.60923 81.6427 4.8703 81.2661 5.23002C80.8961 5.58601 80.6281 6.02502 80.4881 6.50602C80.1518 8.31776 79.9884 10.1574 80.0001 12C79.9881 13.841 80.1511 15.68 80.4881 17.494C80.6251 17.973 80.8921 18.41 81.2631 18.763C81.6341 19.116 82.0961 19.371 82.6041 19.506C84.5071 20 91.9941 20 91.9941 20C95.1348 20.0358 98.2747 19.8788 101.396 19.53C101.898 19.4004 102.358 19.145 102.734 18.788C103.099 18.4417 103.364 18.0028 103.499 17.518C103.844 15.707 104.012 13.8666 104 12.023C104.026 10.1716 103.859 8.32258 103.5 6.50602V6.50701ZM89.6021 15.424V8.57701L95.8621 12.001L89.6021 15.424Z" fill="#0FA958"/>
</g>
<g clip-path="url(#clip1_1_1064)">
<path d="M179.321 5.562C179.169 5.48345 179.021 5.39734 178.878 5.304C178.461 5.02872 178.08 4.7044 177.741 4.338C176.892 3.367 176.575 2.382 176.459 1.693H176.463C176.366 1.12 176.406 0.75 176.413 0.75H172.548V15.693C172.548 15.893 172.548 16.092 172.54 16.288C172.54 16.312 172.537 16.334 172.536 16.361C172.536 16.371 172.536 16.383 172.533 16.394V16.403C172.492 16.939 172.321 17.4569 172.033 17.9109C171.745 18.365 171.35 18.7414 170.883 19.007C170.395 19.2844 169.844 19.4298 169.283 19.429C167.483 19.429 166.023 17.961 166.023 16.148C166.023 14.334 167.483 12.866 169.283 12.866C169.624 12.866 169.963 12.92 170.287 13.026L170.292 9.09C169.308 8.96305 168.308 9.04147 167.356 9.3203C166.404 9.59913 165.52 10.0723 164.76 10.71C164.094 11.2885 163.534 11.9789 163.105 12.75C162.942 13.031 162.326 14.162 162.252 15.996C162.205 17.036 162.518 18.116 162.667 18.561V18.571C162.76 18.833 163.124 19.729 163.716 20.484C164.193 21.09 164.757 21.6224 165.39 22.064V22.054L165.399 22.064C167.269 23.334 169.344 23.251 169.344 23.251C169.703 23.236 170.906 23.251 172.272 22.604C173.787 21.886 174.649 20.817 174.649 20.817C175.2 20.1781 175.638 19.45 175.945 18.664C176.295 17.744 176.411 16.642 176.411 16.202V8.273C176.458 8.301 177.083 8.714 177.083 8.714C177.083 8.714 177.983 9.291 179.386 9.666C180.392 9.933 181.749 9.99 181.749 9.99V6.153C181.274 6.205 180.309 6.055 179.32 5.563L179.321 5.562Z" fill="#0FA958"/>
</g>
<g clip-path="url(#clip2_1_1064)">
<path d="M120 12C120 17.123 123.211 21.497 127.73 23.218C127.62 22.281 127.503 20.736 127.755 19.652C127.972 18.72 129.156 13.714 129.156 13.714C129.156 13.714 128.799 12.999 128.799 11.94C128.799 10.28 129.761 9.04 130.96 9.04C131.98 9.04 132.472 9.805 132.472 10.722C132.472 11.747 131.819 13.279 131.482 14.7C131.201 15.889 132.079 16.859 133.251 16.859C135.374 16.859 137.007 14.62 137.007 11.388C137.007 8.527 134.951 6.528 132.016 6.528C128.618 6.528 126.623 9.077 126.623 11.712C126.623 12.739 127.018 13.839 127.512 14.438C127.554 14.4832 127.584 14.5386 127.598 14.5986C127.613 14.6587 127.612 14.7215 127.595 14.781C127.504 15.159 127.302 15.97 127.263 16.136C127.21 16.354 127.09 16.401 126.863 16.295C125.371 15.601 124.439 13.42 124.439 11.668C124.439 7.899 127.176 4.439 132.331 4.439C136.475 4.439 139.696 7.392 139.696 11.338C139.696 15.455 137.101 18.769 133.497 18.769C132.286 18.769 131.149 18.139 130.759 17.396C130.759 17.396 130.16 19.678 130.015 20.236C129.733 21.32 128.951 22.692 128.466 23.471C129.584 23.815 130.77 24 132 24C138.627 24 144 18.627 144 12C144 5.373 138.627 0 132 0C125.373 0 120 5.373 120 12Z" fill="#0FA958"/>
</g>
<g clip-path="url(#clip3_1_1064)">
<path fill-rule="evenodd" clip-rule="evenodd" d="M0 13.067C0 19.033 4.333 23.994 10 25V16.333H7V13H10V10.333C10 7.333 11.933 5.667 14.667 5.667C15.533 5.667 16.467 5.8 17.333 5.933V9H15.8C14.333 9 14 9.733 14 10.667V13H17.2L16.667 16.333H14V25C19.667 23.994 24 19.034 24 13.067C24 6.43 18.6 1 12 1C5.4 1 0 6.43 0 13.067Z" fill="#0FA958"/>
</g>
<path fill-rule="evenodd" clip-rule="evenodd" d="M47.465 1.066C48.638 1.012 49.012 1 52 1C54.988 1 55.362 1.013 56.534 1.066C57.706 1.119 58.506 1.306 59.206 1.577C59.939 1.854 60.604 2.287 61.154 2.847C61.714 3.396 62.146 4.06 62.422 4.794C62.694 5.494 62.88 6.294 62.934 7.464C62.988 8.639 63 9.013 63 12C63 14.988 62.987 15.362 62.934 16.535C62.881 17.705 62.694 18.505 62.422 19.205C62.146 19.9391 61.7133 20.6042 61.154 21.154C60.604 21.714 59.939 22.146 59.206 22.422C58.506 22.694 57.706 22.88 56.536 22.934C55.362 22.988 54.988 23 52 23C49.012 23 48.638 22.987 47.465 22.934C46.295 22.881 45.495 22.694 44.795 22.422C44.0609 22.146 43.3958 21.7133 42.846 21.154C42.2864 20.6047 41.8533 19.9399 41.577 19.206C41.306 18.506 41.12 17.706 41.066 16.536C41.012 15.361 41 14.987 41 12C41 9.012 41.013 8.638 41.066 7.466C41.119 6.294 41.306 5.494 41.577 4.794C41.8537 4.06008 42.2871 3.39531 42.847 2.846C43.396 2.2865 44.0605 1.85344 44.794 1.577C45.494 1.306 46.294 1.12 47.464 1.066H47.465ZM56.445 3.046C55.285 2.993 54.937 2.982 52 2.982C49.063 2.982 48.715 2.993 47.555 3.046C46.482 3.095 45.9 3.274 45.512 3.425C44.999 3.625 44.632 3.862 44.247 4.247C43.882 4.60205 43.6012 5.03428 43.425 5.512C43.274 5.9 43.095 6.482 43.046 7.555C42.993 8.715 42.982 9.063 42.982 12C42.982 14.937 42.993 15.285 43.046 16.445C43.095 17.518 43.274 18.1 43.425 18.488C43.601 18.965 43.882 19.398 44.247 19.753C44.602 20.118 45.035 20.399 45.512 20.575C45.9 20.726 46.482 20.905 47.555 20.954C48.715 21.007 49.062 21.018 52 21.018C54.938 21.018 55.285 21.007 56.445 20.954C57.518 20.905 58.1 20.726 58.488 20.575C59.001 20.375 59.368 20.138 59.753 19.753C60.118 19.398 60.399 18.965 60.575 18.488C60.726 18.1 60.905 17.518 60.954 16.445C61.007 15.285 61.018 14.937 61.018 12C61.018 9.063 61.007 8.715 60.954 7.555C60.905 6.482 60.726 5.9 60.575 5.512C60.375 4.999 60.138 4.632 59.753 4.247C59.3979 3.88207 58.9657 3.60121 58.488 3.425C58.1 3.274 57.518 3.095 56.445 3.046ZM50.595 15.391C51.3797 15.7176 52.2534 15.7617 53.0669 15.5157C53.8805 15.2697 54.5834 14.7489 55.0556 14.0422C55.5278 13.3356 55.7401 12.4869 55.656 11.6411C55.572 10.7953 55.197 10.005 54.595 9.405C54.2112 9.02148 53.7472 8.72781 53.2363 8.54515C52.7255 8.36248 52.1804 8.29536 51.6405 8.34862C51.1006 8.40187 50.5792 8.57418 50.1138 8.85313C49.6485 9.13208 49.2507 9.51074 48.9493 9.96185C48.6479 10.413 48.4502 10.9253 48.3705 11.462C48.2908 11.9986 48.3312 12.5463 48.4885 13.0655C48.6459 13.5847 48.9165 14.0626 49.2807 14.4647C49.645 14.8668 50.0938 15.1832 50.595 15.391ZM48.002 8.002C48.527 7.47697 49.1503 7.0605 49.8363 6.77636C50.5223 6.49222 51.2575 6.34597 52 6.34597C52.7425 6.34597 53.4777 6.49222 54.1637 6.77636C54.8497 7.0605 55.473 7.47697 55.998 8.002C56.523 8.52702 56.9395 9.15032 57.2236 9.8363C57.5078 10.5223 57.654 11.2575 57.654 12C57.654 12.7425 57.5078 13.4777 57.2236 14.1637C56.9395 14.8497 56.523 15.473 55.998 15.998C54.9377 17.0583 53.4995 17.654 52 17.654C50.5005 17.654 49.0623 17.0583 48.002 15.998C46.9417 14.9377 46.346 13.4995 46.346 12C46.346 10.5005 46.9417 9.06234 48.002 8.002ZM58.908 7.188C59.0381 7.06527 59.1423 6.91768 59.2143 6.75397C59.2863 6.59027 59.3248 6.41377 59.3274 6.23493C59.33 6.05609 59.2967 5.87855 59.2295 5.71281C59.1622 5.54707 59.0624 5.39651 58.936 5.27004C58.8095 5.14357 58.6589 5.04376 58.4932 4.97652C58.3275 4.90928 58.1499 4.87598 57.9711 4.87858C57.7922 4.88119 57.6157 4.91965 57.452 4.9917C57.2883 5.06374 57.1407 5.1679 57.018 5.298C56.7793 5.55103 56.6486 5.88712 56.6537 6.23493C56.6588 6.58274 56.7992 6.91488 57.0452 7.16084C57.2911 7.40681 57.6233 7.54723 57.9711 7.5523C58.3189 7.55737 58.655 7.42669 58.908 7.188Z" fill="#0FA958"/>
<defs>
<clipPath id="clip0_1_1064">
<rect width="24" height="24" fill="white" transform="translate(80)"/>
</clipPath>
<clipPath id="clip1_1_1064">
<rect width="24" height="24" fill="white" transform="translate(160)"/>
</clipPath>
<clipPath id="clip2_1_1064">
<rect width="24" height="24" fill="white" transform="translate(120)"/>
</clipPath>
<clipPath id="clip3_1_1064">
<rect width="24" height="24" fill="white" transform="translate(0 1)"/>
</clipPath>
</defs>
</svg>
