<svg width="113" height="23" viewBox="0 0 113 23" fill="none" xmlns="http://www.w3.org/2000/svg">
<path fill-rule="evenodd" clip-rule="evenodd" d="M39.5857 11.3448C39.5857 16.9538 43.6594 21.6179 48.9872 22.5637V14.4154H46.1668V11.2818H48.9872V8.77444C48.9872 5.95399 50.8045 4.38769 53.3749 4.38769C54.1891 4.38769 55.0672 4.51273 55.8814 4.63777V7.52122H54.4401C53.0609 7.52122 52.7478 8.21035 52.7478 9.08845V11.2818H55.7563L55.2552 14.4154H52.7478V22.5637C58.0757 21.6179 62.1494 16.9547 62.1494 11.3448C62.1494 5.10503 57.0725 0 50.8675 0C44.6625 0 39.5857 5.10503 39.5857 11.3448Z" fill="white"/>
<path d="M11.279 7.51962C9.20739 7.51962 7.5168 9.21021 7.5168 11.2818C7.5168 13.3534 9.20739 15.044 11.279 15.044C13.3506 15.044 15.0412 13.3534 15.0412 11.2818C15.0412 9.21021 13.3506 7.51962 11.279 7.51962ZM22.5628 11.2818C22.5628 9.72389 22.5769 8.18005 22.4894 6.62493C22.4019 4.81862 21.9899 3.21551 20.669 1.89465C19.3453 0.570957 17.745 0.161714 15.9387 0.0742209C14.3808 -0.0132724 12.837 0.000839496 11.2818 0.000839496C9.72388 0.000839496 8.18005 -0.0132724 6.62493 0.0742209C4.81862 0.161714 3.21551 0.573779 1.89465 1.89465C0.570957 3.21834 0.161714 4.81862 0.0742209 6.62493C-0.0132724 8.18287 0.000839496 9.72671 0.000839496 11.2818C0.000839496 12.837 -0.0132724 14.3836 0.0742209 15.9387C0.161714 17.745 0.57378 19.3481 1.89465 20.669C3.21834 21.9927 4.81862 22.4019 6.62493 22.4894C8.18288 22.5769 9.72671 22.5628 11.2818 22.5628C12.8398 22.5628 14.3836 22.5769 15.9387 22.4894C17.745 22.4019 19.3482 21.9899 20.669 20.669C21.9927 19.3453 22.4019 17.745 22.4894 15.9387C22.5798 14.3836 22.5628 12.8398 22.5628 11.2818ZM11.279 17.0705C8.07562 17.0705 5.49034 14.4852 5.49034 11.2818C5.49034 8.07845 8.07562 5.49316 11.279 5.49316C14.4824 5.49316 17.0677 8.07845 17.0677 11.2818C17.0677 14.4852 14.4824 17.0705 11.279 17.0705ZM17.3048 6.60799C16.5568 6.60799 15.9528 6.00401 15.9528 5.25608C15.9528 4.50816 16.5568 3.90417 17.3048 3.90417C18.0527 3.90417 18.6567 4.50816 18.6567 5.25608C18.6569 5.43368 18.6221 5.60958 18.5542 5.7737C18.4864 5.93782 18.3868 6.08695 18.2612 6.21253C18.1356 6.33811 17.9865 6.43768 17.8224 6.50554C17.6583 6.5734 17.4824 6.60822 17.3048 6.60799Z" fill="white"/>
<path d="M112.292 3.54024C112.1 2.85703 111.727 2.23848 111.212 1.75036C110.683 1.24723 110.034 0.887322 109.326 0.704619C106.68 0.00698867 96.0756 0.00698883 96.0756 0.00698883C91.6549 -0.0433073 87.2353 0.177908 82.8417 0.669385C82.1345 0.865586 81.4867 1.23353 80.956 1.74049C80.4345 2.24222 80.0568 2.86093 79.8595 3.53883C79.3855 6.09222 79.1553 8.68487 79.1718 11.2818C79.1548 13.8764 79.3846 16.4682 79.8595 19.0248C80.0526 19.6999 80.4289 20.3158 80.9518 20.8133C81.4746 21.3108 82.1258 21.6702 82.8417 21.8604C85.5237 22.5567 96.0756 22.5567 96.0756 22.5567C100.502 22.607 104.927 22.3858 109.326 21.8943C110.034 21.7116 110.683 21.3517 111.212 20.8485C111.727 20.3605 112.099 19.7419 112.29 19.0586C112.777 16.5062 113.013 13.9125 112.996 11.3142C113.033 8.70496 112.797 6.09901 112.292 3.53883V3.54024ZM92.7044 16.1075V6.4576L101.527 11.2832L92.7044 16.1075Z" fill="white"/>
</svg>
