<svg width="55" height="69" viewBox="0 0 55 69" fill="none" xmlns="http://www.w3.org/2000/svg">
<path d="M27.4998 20.6249V0H6.87495C5.0516 0 3.30293 0.724323 2.01363 2.01363C0.724323 3.30293 0 5.0516 0 6.87495V61.8746C0 63.6979 0.724323 65.4466 2.01363 66.7359C3.30293 68.0252 5.0516 68.7495 6.87495 68.7495H48.1247C49.948 68.7495 51.6967 68.0252 52.986 66.7359C54.2753 65.4466 54.9996 63.6979 54.9996 61.8746V27.4998H34.3748C32.5514 27.4998 30.8027 26.7755 29.5134 25.4862C28.2241 24.1969 27.4998 22.4482 27.4998 20.6249ZM10.3124 35.2341C10.3124 34.5504 10.584 33.8946 11.0675 33.4111C11.551 32.9276 12.2068 32.656 12.8905 32.656C13.5743 32.656 14.23 32.9276 14.7135 33.4111C15.197 33.8946 15.4686 34.5504 15.4686 35.2341C15.4686 35.9179 15.197 36.5736 14.7135 37.0571C14.23 37.5406 13.5743 37.8122 12.8905 37.8122C12.2068 37.8122 11.551 37.5406 11.0675 37.0571C10.584 36.5736 10.3124 35.9179 10.3124 35.2341ZM10.3124 45.5466C10.3124 44.8628 10.584 44.207 11.0675 43.7236C11.551 43.2401 12.2068 42.9684 12.8905 42.9684C13.5743 42.9684 14.23 43.2401 14.7135 43.7236C15.197 44.207 15.4686 44.8628 15.4686 45.5466C15.4686 46.2303 15.197 46.8861 14.7135 47.3696C14.23 47.853 13.5743 48.1247 12.8905 48.1247C12.2068 48.1247 11.551 47.853 11.0675 47.3696C10.584 46.8861 10.3124 46.2303 10.3124 45.5466ZM10.3124 55.859C10.3124 55.1752 10.584 54.5195 11.0675 54.036C11.551 53.5525 12.2068 53.2809 12.8905 53.2809C13.5743 53.2809 14.23 53.5525 14.7135 54.036C15.197 54.5195 15.4686 55.1752 15.4686 55.859C15.4686 56.5427 15.197 57.1985 14.7135 57.682C14.23 58.1655 13.5743 58.4371 12.8905 58.4371C12.2068 58.4371 11.551 58.1655 11.0675 57.682C10.584 57.1985 10.3124 56.5427 10.3124 55.859ZM20.6249 35.2341C20.6249 34.5504 20.8965 33.8946 21.38 33.4111C21.8635 32.9276 22.5192 32.656 23.203 32.656H42.1091C42.7928 32.656 43.4486 32.9276 43.9321 33.4111C44.4156 33.8946 44.6872 34.5504 44.6872 35.2341C44.6872 35.9179 44.4156 36.5736 43.9321 37.0571C43.4486 37.5406 42.7928 37.8122 42.1091 37.8122H23.203C22.5192 37.8122 21.8635 37.5406 21.38 37.0571C20.8965 36.5736 20.6249 35.9179 20.6249 35.2341ZM20.6249 45.5466C20.6249 44.8628 20.8965 44.207 21.38 43.7236C21.8635 43.2401 22.5192 42.9684 23.203 42.9684H42.1091C42.7928 42.9684 43.4486 43.2401 43.9321 43.7236C44.4156 44.207 44.6872 44.8628 44.6872 45.5466C44.6872 46.2303 44.4156 46.8861 43.9321 47.3696C43.4486 47.853 42.7928 48.1247 42.1091 48.1247H23.203C22.5192 48.1247 21.8635 47.853 21.38 47.3696C20.8965 46.8861 20.6249 46.2303 20.6249 45.5466ZM20.6249 55.859C20.6249 55.1752 20.8965 54.5195 21.38 54.036C21.8635 53.5525 22.5192 53.2809 23.203 53.2809H42.1091C42.7928 53.2809 43.4486 53.5525 43.9321 54.036C44.4156 54.5195 44.6872 55.1752 44.6872 55.859C44.6872 56.5427 44.4156 57.1985 43.9321 57.682C43.4486 58.1655 42.7928 58.4371 42.1091 58.4371H23.203C22.5192 58.4371 21.8635 58.1655 21.38 57.682C20.8965 57.1985 20.6249 56.5427 20.6249 55.859ZM32.656 20.6249V1.71874L53.2809 22.3436H34.3748C33.9189 22.3436 33.4818 22.1625 33.1594 21.8402C32.8371 21.5179 32.656 21.0807 32.656 20.6249Z" fill="white"/>
</svg>
