<svg width="81" height="81" viewBox="0 0 81 81" fill="none" xmlns="http://www.w3.org/2000/svg">
<path d="M40.5 0C18.1346 0 0 18.1346 0 40.5C0 62.8654 18.1346 81 40.5 81C62.8654 81 81 62.8654 81 40.5C81 18.1346 62.8654 0 40.5 0ZM53.5269 41.1238L33.7832 55.4886C33.6749 55.5664 33.5473 55.6129 33.4144 55.6228C33.2815 55.6328 33.1484 55.606 33.0298 55.5453C32.9111 55.4845 32.8115 55.3923 32.7419 55.2786C32.6722 55.165 32.6353 55.0343 32.6351 54.901V26.1894C32.6346 26.0559 32.6712 25.9248 32.7407 25.8107C32.8102 25.6967 32.9099 25.6041 33.0288 25.5432C33.1477 25.4824 33.2811 25.4557 33.4142 25.466C33.5474 25.4763 33.6751 25.5233 33.7832 25.6018L53.5269 39.9576C53.6202 40.0236 53.6963 40.111 53.7488 40.2124C53.8013 40.3139 53.8287 40.4265 53.8287 40.5407C53.8287 40.6549 53.8013 40.7675 53.7488 40.869C53.6963 40.9704 53.6202 41.0578 53.5269 41.1238Z" fill="white" fill-opacity="0.5"/>
</svg>
