<svg width="11" height="11" viewBox="0 0 11 11" fill="none" xmlns="http://www.w3.org/2000/svg">
<rect x="2.75043" y="3.20831" width="5.49999" height="4.58333" fill="white"/>
<path fill-rule="evenodd" clip-rule="evenodd" d="M3.20781 0.916674C2.60002 0.916674 2.01713 1.15812 1.58736 1.58789C1.15759 2.01766 0.916147 2.60055 0.916147 3.20834V7.79167C0.916147 8.39945 1.15759 8.98235 1.58736 9.41212C2.01713 9.84189 2.60002 10.0833 3.20781 10.0833H7.79114C8.39893 10.0833 8.98182 9.84189 9.41159 9.41212C9.84136 8.98235 10.0828 8.39945 10.0828 7.79167V3.20834C10.0828 2.60055 9.84136 2.01766 9.41159 1.58789C8.98182 1.15812 8.39893 0.916674 7.79114 0.916674H3.20781ZM7.20906 4.89684C7.25023 4.8529 7.28234 4.80128 7.30356 4.74493C7.32478 4.68859 7.3347 4.62861 7.33274 4.56843C7.33078 4.50825 7.31699 4.44904 7.29215 4.39419C7.26731 4.33934 7.23191 4.28992 7.18797 4.24875C7.14403 4.20759 7.09242 4.17547 7.03607 4.15425C6.97972 4.13303 6.91975 4.12312 6.85957 4.12507C6.79939 4.12703 6.74018 4.14082 6.68533 4.16566C6.63048 4.1905 6.58106 4.2259 6.53989 4.26984L5.12685 5.77775L4.42881 5.15763C4.33735 5.0816 4.21992 5.0441 4.10133 5.05305C3.98274 5.06199 3.87226 5.11669 3.79325 5.20558C3.71424 5.29447 3.67287 5.41059 3.67789 5.52942C3.68291 5.64824 3.73392 5.76047 3.82014 5.84238L4.85139 6.75904C4.94062 6.83831 5.05725 6.87964 5.17648 6.87424C5.29571 6.86885 5.40814 6.81716 5.48985 6.73017L7.2086 4.89684H7.20906Z" fill="#0075FF"/>
</svg>
