<svg width="17" height="17" viewBox="0 0 17 17" fill="none" xmlns="http://www.w3.org/2000/svg">
<path d="M10.8006 11.4113L11.9906 10.2213C12.1508 10.063 12.3536 9.95463 12.5743 9.90936C12.795 9.86409 13.024 9.88387 13.2337 9.96627L14.684 10.5453C14.8959 10.6313 15.0775 10.7781 15.2061 10.9672C15.3347 11.1563 15.4044 11.3792 15.4065 11.6078V14.2641C15.4053 14.4196 15.3726 14.5733 15.3104 14.7159C15.2482 14.8584 15.1578 14.987 15.0446 15.0937C14.9314 15.2004 14.7979 15.2831 14.6519 15.3368C14.5059 15.3905 14.3506 15.4142 14.1952 15.4063C4.03243 14.7741 1.9818 6.16783 1.59399 2.87408C1.57599 2.71234 1.59243 2.54861 1.64225 2.39368C1.69207 2.23875 1.77413 2.09612 1.88302 1.97518C1.99192 1.85423 2.1252 1.75772 2.27407 1.69198C2.42295 1.62624 2.58406 1.59277 2.7468 1.59377H5.31274C5.54171 1.59445 5.76525 1.66361 5.95459 1.79237C6.14394 1.92112 6.29043 2.10358 6.37524 2.31627L6.9543 3.76658C7.03944 3.9754 7.06116 4.20468 7.01675 4.42577C6.97234 4.64686 6.86378 4.84996 6.70461 5.00971L5.51461 6.19971C5.51461 6.19971 6.19993 10.8375 10.8006 11.4113Z" fill="#0FA958"/>
</svg>
