<svg width="20" height="20" viewBox="0 0 20 20" fill="none" xmlns="http://www.w3.org/2000/svg">
<path d="M4.10848 4.10831C5.4758 2.73206 7.28045 1.87599 9.21129 1.68768C11.1421 1.49937 13.0782 1.99063 14.6857 3.07675C16.2931 4.16288 17.4713 5.77582 18.017 7.63749C18.5627 9.49916 18.4418 11.4929 17.6751 13.275C17.5952 13.4406 17.569 13.6271 17.6001 13.8083L18.3335 17.3333C18.3617 17.4685 18.356 17.6085 18.3167 17.7409C18.2774 17.8732 18.2059 17.9938 18.1085 18.0916C18.0286 18.1709 17.9336 18.2332 17.829 18.2747C17.7245 18.3162 17.6126 18.3362 17.5001 18.3333H17.3335L13.7668 17.6166C13.5855 17.5949 13.4017 17.6207 13.2335 17.6916C11.4514 18.4583 9.45766 18.5792 7.59599 18.0335C5.73432 17.4878 4.12138 16.3096 3.03526 14.7022C1.94913 13.0947 1.45787 11.1586 1.64618 9.22779C1.83449 7.29695 2.69056 5.4923 4.06681 4.12498L4.10848 4.10831ZM13.3335 10.8333C13.4983 10.8333 13.6594 10.7844 13.7965 10.6929C13.9335 10.6013 14.0403 10.4712 14.1034 10.3189C14.1665 10.1666 14.183 9.99905 14.1508 9.8374C14.1186 9.67575 14.0393 9.52727 13.9227 9.41072C13.8062 9.29418 13.6577 9.21481 13.4961 9.18266C13.3344 9.1505 13.1668 9.16701 13.0146 9.23008C12.8623 9.29315 12.7322 9.39996 12.6406 9.537C12.549 9.67404 12.5001 9.83516 12.5001 9.99998C12.5001 10.221 12.5879 10.433 12.7442 10.5892C12.9005 10.7455 13.1125 10.8333 13.3335 10.8333ZM10.0001 10.8333C10.165 10.8333 10.3261 10.7844 10.4631 10.6929C10.6002 10.6013 10.707 10.4712 10.77 10.3189C10.8331 10.1666 10.8496 9.99905 10.8175 9.8374C10.7853 9.67575 10.7059 9.52727 10.5894 9.41072C10.4729 9.29418 10.3244 9.21481 10.1627 9.18266C10.0011 9.1505 9.83351 9.16701 9.68124 9.23008C9.52897 9.29315 9.39882 9.39996 9.30725 9.537C9.21569 9.67404 9.16681 9.83516 9.16681 9.99998C9.16681 10.221 9.25461 10.433 9.41089 10.5892C9.56717 10.7455 9.77913 10.8333 10.0001 10.8333ZM6.66681 10.8333C6.83163 10.8333 6.99275 10.7844 7.12979 10.6929C7.26683 10.6013 7.37364 10.4712 7.43671 10.3189C7.49979 10.1666 7.51629 9.99905 7.48413 9.8374C7.45198 9.67575 7.37261 9.52727 7.25607 9.41072C7.13952 9.29418 6.99104 9.21481 6.82939 9.18266C6.66774 9.1505 6.50018 9.16701 6.34791 9.23008C6.19564 9.29315 6.06549 9.39996 5.97392 9.537C5.88235 9.67404 5.83348 9.83516 5.83348 9.99998C5.83348 10.221 5.92128 10.433 6.07756 10.5892C6.23384 10.7455 6.4458 10.8333 6.66681 10.8333Z" fill="white"/>
</svg>
