<svg width="18" height="18" viewBox="0 0 18 18" fill="none" xmlns="http://www.w3.org/2000/svg">
<path d="M9 8.25006C9.62132 8.25006 10.125 7.74638 10.125 7.12506C10.125 6.50374 9.62132 6.00006 9 6.00006C8.37868 6.00006 7.875 6.50374 7.875 7.12506C7.875 7.74638 8.37868 8.25006 9 8.25006Z" fill="#0FA958"/>
<path d="M8.99951 1.50006C7.41855 1.49998 5.90145 2.12388 4.77794 3.23615C3.65443 4.34843 3.01532 5.85918 2.99951 7.44006C2.99951 11.5501 8.28701 16.1251 8.51201 16.3201C8.64786 16.4363 8.82075 16.5001 8.99951 16.5001C9.17828 16.5001 9.35116 16.4363 9.48701 16.3201C9.74951 16.1251 14.9995 11.5501 14.9995 7.44006C14.9837 5.85918 14.3446 4.34843 13.2211 3.23615C12.0976 2.12388 10.5805 1.49998 8.99951 1.50006ZM8.99951 9.75006C8.48034 9.75006 7.97282 9.59611 7.54114 9.30767C7.10946 9.01923 6.77301 8.60926 6.57433 8.12961C6.37565 7.64995 6.32366 7.12215 6.42495 6.61295C6.52624 6.10375 6.77624 5.63602 7.14336 5.26891C7.51047 4.90179 7.9782 4.65179 8.4874 4.5505C8.9966 4.44921 9.5244 4.5012 10.0041 4.69988C10.4837 4.89856 10.8937 5.23501 11.1821 5.66669C11.4706 6.09837 11.6245 6.60589 11.6245 7.12506C11.6245 7.82125 11.3479 8.48893 10.8557 8.98122C10.3634 9.4735 9.6957 9.75006 8.99951 9.75006Z" fill="#0FA958"/>
</svg>
