<svg width="22" height="17" viewBox="0 0 22 17" fill="none" xmlns="http://www.w3.org/2000/svg">
<g clip-path="url(#clip0_14_1176)">
<path d="M14.135 8.50001C13.5739 8.50001 13.0459 8.20118 12.7604 7.72305L10.6254 4.1836L8.49379 7.72305C8.20492 8.2045 7.67699 8.50333 7.11586 8.50333C6.96645 8.50333 6.81703 8.4834 6.67426 8.44024L2.12543 7.13868V13.0488C2.12543 13.5369 2.45746 13.9619 2.92894 14.0781L10.1075 15.8744C10.4461 15.9574 10.8014 15.9574 11.1368 15.8744L18.3219 14.0781C18.7934 13.9586 19.1254 13.5336 19.1254 13.0488V7.13868L14.5766 8.43692C14.4338 8.48008 14.2844 8.50001 14.135 8.50001ZM21.194 4.77462L19.484 1.36133C19.3811 1.15548 19.1586 1.03594 18.9295 1.06583L10.6254 2.12501L13.6702 7.1752C13.7963 7.38438 14.0487 7.48399 14.2844 7.41758L20.8553 5.54161C21.184 5.44532 21.3434 5.08008 21.194 4.77462ZM1.76684 1.36133L0.0568741 4.77462C-0.0958603 5.08008 0.0668351 5.44532 0.392226 5.53829L6.96312 7.41426C7.19887 7.48067 7.45121 7.38106 7.57738 7.17188L10.6254 2.12501L2.31801 1.06583C2.08891 1.03926 1.86976 1.15548 1.76684 1.36133Z" fill="#FAE013"/>
</g>
<defs>
<clipPath id="clip0_14_1176">
<rect width="21.25" height="17" fill="white"/>
</clipPath>
</defs>
</svg>
