<svg width="20" height="20" viewBox="0 0 20 20" fill="none" xmlns="http://www.w3.org/2000/svg">
<path d="M3.13509 6.89004C4.06809 6.16504 4.84209 6.66504 5.87509 7.86104C5.99109 7.99604 6.14709 7.83804 6.23609 7.76104C6.32409 7.68304 7.68709 6.45604 7.75409 6.40004C7.82009 6.34104 7.90009 6.23104 7.79509 6.10804C7.54216 5.79519 7.29446 5.47814 7.05209 5.15704C5.24409 2.79204 11.9981 1.18804 10.9611 1.16304C10.4331 1.14904 8.31509 1.12404 7.99809 1.15904C6.71509 1.29404 5.10409 2.49304 4.29309 3.05204C3.23209 3.77804 2.83609 4.20404 2.77109 4.26304C2.47109 4.52504 2.72309 5.13004 2.17909 5.60704C1.60409 6.11004 1.24509 5.72904 0.912093 6.02104C0.747093 6.16704 0.285093 6.51304 0.153093 6.62804C0.0200927 6.74504 -0.00390732 6.94204 0.132093 7.09904C0.132093 7.09904 1.39609 8.49504 1.50209 8.61904C1.60709 8.74104 1.89309 8.84704 2.06909 8.69004C2.24609 8.53404 2.70109 8.13704 2.77709 8.06704C2.85509 8.00104 2.72709 7.20604 3.13509 6.89004ZM8.84309 7.40704C8.72309 7.26804 8.57409 7.26404 8.44609 7.37804L7.01209 8.63004C6.95673 8.68028 6.92299 8.75001 6.91796 8.8246C6.91292 8.89919 6.93698 8.97282 6.98509 9.03004L15.2791 18.469C15.4731 18.692 15.8091 18.715 16.0301 18.522L17.0001 17.709C17.1069 17.615 17.1722 17.4827 17.182 17.3407C17.1917 17.1988 17.145 17.0588 17.0521 16.951L8.84309 7.40704ZM19.9021 3.39004C19.8281 2.89604 19.5721 2.99904 19.4391 3.20804C19.3061 3.41904 18.7181 4.31004 18.4761 4.71404C18.2361 5.11404 17.6441 5.90504 16.5421 5.12404C15.3941 4.31304 15.7931 3.74704 15.9931 3.36604C16.1941 2.98304 16.8111 1.90904 16.9001 1.77604C16.9891 1.64104 16.8851 1.24904 16.5291 1.41304C16.1721 1.57704 14.0061 2.43804 13.7061 3.67304C13.3991 4.92904 13.9631 6.05204 12.8561 7.16704L11.5131 8.56704L12.8621 10.133L14.5161 8.56304C14.9101 8.16704 15.7521 7.78204 16.5141 7.95604C18.1471 8.32504 19.0381 7.71204 19.5751 6.69804C20.0571 5.79204 19.9771 3.88404 19.9021 3.39004ZM2.73909 17.053C2.63907 17.1538 2.58293 17.2901 2.58293 17.432C2.58293 17.574 2.63907 17.7103 2.73909 17.811L3.69009 18.741C3.89809 18.95 4.22809 18.862 4.43609 18.653L9.34309 13.829L7.84009 12.115L2.73909 17.053Z" fill="#FAE013"/>
</svg>
